#!OML:ASF F:\VICON\USERDATA\Patient Classification 1\PLAYGROUND\JustinFriday\JustinFriday.ASF
:FULLY-SPECIFIED
:DEGREES
4509
root 27.062 17.6017 39.5585 -362.217 -185.972 -358.291
lowerback 12.6269 0.866485 -3.11573
upperback 1.66762 1.05802 2.31504
thorax -5.42431 0.692666 4.01509
lowerneck -11.3804 6.36422 3.28472
upperneck 7.14729 8.1683 -1.56963
head 4.17862 4.03017 -0.435097
rclavicle -1.87106e-014 1.86858e-014
rhumerus -57.4481 -47.817 -39.6112
rradius 12.1182
rwrist 20.2986
rhand -16.6169 -26.9179
rfingers 7.12502
rthumb 9.60496 -56.679
lclavicle -1.87106e-014 1.86858e-014
lhumerus -14.5645 3.89046 87.2033
lradius 43.6902
lwrist 4.51279
lhand -18.5857 -10.5024
lfingers 7.12502
lthumb 7.705 19.3372
rfemur -29.5658 6.70537 12.1034
rtibia 52.8466
rfoot -8.80999 -15.6905
rtoes 22.9071
lfemur -1.56627 1.31683 -28.2852
ltibia 29.4678
lfoot -20.5833 -8.43281
ltoes 25.1222
4510
root 27.0886 17.5877 39.4266 -362.155 -185.35 -358.331
lowerback 12.6905 0.919453 -3.18313
upperback 1.70243 1.12302 2.32282
thorax -5.43009 0.727796 4.05005
lowerneck -11.3439 6.36245 3.40705
upperneck 6.40793 8.14307 -1.58351
head 4.40178 4.02604 -0.528496
rclavicle 2.38542e-015 2.26615e-014
rhumerus -58.2133 -47.2715 -39.5007
rradius 12.165
rwrist 20.4798
rhand -16.4282 -26.6956
rfingers 7.12502
rthumb 9.78701 -56.4482
lclavicle 2.38542e-015 2.26615e-014
lhumerus -14.26 3.663 87.0275
lradius 44.2575
lwrist 4.64473
lhand -18.4609 -10.222
lfingers 7.12502
lthumb 7.82549 19.6132
rfemur -29.6899 7.1299 11.9603
rtibia 50.2347
rfoot -8.92694 -16.2626
rtoes 21.1855
lfemur -0.948185 1.03595 -28.2635
ltibia 29.1643
lfoot -20.3629 -8.73181
ltoes 25.2878
4511
root 27.1173 17.5757 39.2976 -362.04 -184.681 -358.457
lowerback 12.7427 0.977015 -3.34283
upperback 1.70679 1.17589 2.30064
thorax -5.46187 0.757939 4.10806
lowerneck -11.4347 6.29405 3.71904
upperneck 6.61723 8.03746 -1.97419
head 4.05594 3.95684 -0.642132
rclavicle 2.11209e-014 8.15017e-015
rhumerus -58.9616 -46.7139 -39.4875
rradius 12.2725
rwrist 20.4064
rhand -16.1629 -25.7311
rfingers 7.12502
rthumb 10.043 -55.4715
lclavicle 2.11209e-014 8.15017e-015
lhumerus -13.9214 3.42231 86.8588
lradius 44.6252
lwrist 4.85276
lhand -18.7213 -10.0957
lfingers 7.12502
lthumb 7.57417 19.7486
rfemur -29.8811 7.66823 11.7176
rtibia 47.5745
rfoot -8.44338 -17.0696
rtoes 19.1027
lfemur -0.404099 0.864897 -28.2904
ltibia 28.8306
lfoot -20.2165 -8.99723
ltoes 25.076
4512
root 27.1402 17.5686 39.1696 -361.781 -183.975 -358.386
lowerback 12.7445 0.991232 -3.26619
upperback 1.63223 1.20531 2.34407
thorax -5.54435 0.773099 4.10533
lowerneck -13.2373 6.49678 3.32269
upperneck 9.33615 8.24584 -0.98294
head 5.13743 4.0874 -0.151293
rclavicle 9.46712e-015 5.76476e-015
rhumerus -60.0927 -46.5195 -38.777
rradius 12.3515
rwrist 20.4685
rhand -15.4897 -24.6545
rfingers 7.12502
rthumb 10.6924 -54.3624
lclavicle 9.46712e-015 5.76476e-015
lhumerus -13.8081 3.23829 86.6558
lradius 45.1158
lwrist 4.82877
lhand -19.3523 -10.3527
lfingers 7.12502
lthumb 6.96505 19.5128
rfemur -30.1821 7.5302 11.7161
rtibia 44.8822
rfoot -7.59086 -17.3061
rtoes 16.2643
lfemur -0.0119043 0.680986 -28.1162
ltibia 28.4871
lfoot -20.0776 -9.12794
ltoes 24.505
4513
root 27.164 17.5574 39.0385 -361.551 -183.287 -358.583
lowerback 12.7078 1.03775 -3.46887
upperback 1.59067 1.23383 2.31788
thorax -5.57425 0.790693 4.18849
lowerneck -13.2188 6.47615 3.41298
upperneck 9.18694 8.20913 -1.06413
head 5.09431 4.06728 -0.196924
rclavicle -5.96354e-016 -3.18055e-015
rhumerus -60.8624 -46.2692 -38.467
rradius 12.4039
rwrist 20.4214
rhand -14.9503 -24.2525
rfingers 7.12502
rthumb 11.2127 -53.9329
lclavicle -5.96354e-016 -3.18055e-015
lhumerus -13.9075 3.21084 86.4483
lradius 45.9736
lwrist 4.60294
lhand -19.2449 -10.4843
lfingers 7.12502
lthumb 7.06874 19.3776
rfemur -30.4718 7.32104 11.4305
rtibia 42.2021
rfoot -6.51712 -17.1155
rtoes 14.1251
lfemur 0.39998 0.394304 -28.265
ltibia 28.2108
lfoot -19.8641 -9.14965
ltoes 24.0034
4514
root 27.1906 17.5437 38.9049 -361.436 -182.673 -358.71
lowerback 12.7399 1.11334 -3.62325
upperback 1.58597 1.3108 2.29955
thorax -5.60753 0.832553 4.24328
lowerneck -13.1044 6.43791 3.54584
upperneck 9.06551 8.1469 -1.15197
head 5.04572 4.03653 -0.255877
rclavicle 1.05356e-014 1.03368e-014
rhumerus -60.8848 -45.4477 -39.3446
rradius 12.485
rwrist 19.7726
rhand -15.0106 -24.2746
rfingers 7.12502
rthumb 11.1545 -53.9581
lclavicle 1.05356e-014 1.03368e-014
lhumerus -13.9361 3.1695 86.281
lradius 46.6951
lwrist 4.50214
lhand -19.0805 -10.1738
lfingers 7.12502
lthumb 7.22747 19.6827
rfemur -30.6429 7.19958 11.304
rtibia 39.6042
rfoot -6.1435 -17.4277
rtoes 10.8255
lfemur 0.92652 0.169999 -28.2975
ltibia 27.9775
lfoot -19.6526 -9.14886
ltoes 23.3594
4515
root 27.2081 17.5354 38.7694 -361.223 -181.96 -358.417
lowerback 12.7141 1.08589 -3.29426
upperback 1.51049 1.32635 2.39158
thorax -5.67012 0.836539 4.15068
lowerneck -12.9035 6.29499 3.87204
upperneck 8.83358 7.94338 -1.52085
head 4.96495 3.92508 -0.447729
rclavicle -6.31141e-015 3.57812e-015
rhumerus -61.0316 -44.6304 -40.0601
rradius 12.7631
rwrist 18.4094
rhand -14.64 -24.4227
rfingers 7.12502
rthumb 11.512 -54.0865
lclavicle -6.31141e-015 3.57812e-015
lhumerus -13.7866 2.81519 86.0968
lradius 46.8965
lwrist 4.65665
lhand -19.5319 -9.89672
lfingers 7.12502
lthumb 6.79174 19.9743
rfemur -30.8748 6.68472 11.7325
rtibia 37.2148
rfoot -5.71655 -16.9745
rtoes 9.30838
lfemur 1.35358 -0.0480394 -27.8354
ltibia 27.7434
lfoot -19.4302 -9.25136
ltoes 22.5326
4516
root 27.221 17.5254 38.6313 -360.982 -181.156 -358.375
lowerback 12.6192 1.027 -3.17502
upperback 1.4512 1.26547 2.41419
thorax -5.67238 0.803961 4.11811
lowerneck -14.4936 6.56013 3.3989
upperneck 10.8301 8.22143 -0.632008
head 5.8019 4.09155 0.0160164
rclavicle -2.23633e-015 -4.77083e-015
rhumerus -61.3862 -44.1904 -40.3671
rradius 13.0378
rwrist 17.5166
rhand -14.2677 -24.5602
rfingers 7.12502
rthumb 11.8709 -54.2037
lclavicle -2.23633e-015 -4.77083e-015
lhumerus -13.7455 2.23038 85.817
lradius 47.166
lwrist 5.13057
lhand -20.0592 -10.2764
lfingers 7.12502
lthumb 6.28266 19.6104
rfemur -31.1886 5.66682 11.9838
rtibia 35.033
rfoot -6.37979 -16.1221
rtoes 12.3017
lfemur 1.74851 -0.202741 -27.6403
ltibia 27.4938
lfoot -19.1611 -9.45962
ltoes 21.7122
4517
root 27.2383 17.51 38.4904 -360.83 -180.563 -358.515
lowerback 12.5368 1.05417 -3.31036
upperback 1.46678 1.28265 2.38838
thorax -5.61395 0.813484 4.16545
lowerneck -14.821 6.58175 3.47212
upperneck 10.9778 8.2225 -0.622987
head 5.9055 4.09327 0.0217904
rclavicle 3.42904e-015 -1.47101e-014
rhumerus -61.786 -43.9831 -40.4124
rradius 13.1701
rwrist 16.8427
rhand -13.7096 -24.2754
rfingers 7.12502
rthumb 12.4091 -53.8871
lclavicle 3.42904e-015 -1.47101e-014
lhumerus -13.922 2.2966 85.5594
lradius 47.7285
lwrist 5.02523
lhand -20.2843 -10.8137
lfingers 7.12502
lthumb 6.06531 19.0795
rfemur -31.5309 4.98196 12.0563
rtibia 33.1307
rfoot -6.78226 -15.3915
rtoes 11.5992
lfemur 2.25656 -0.162476 -27.6341
ltibia 27.2399
lfoot -18.9934 -9.54481
ltoes 20.8194
4518
root 27.254 17.5043 38.3488 -360.537 -179.983 -358.536
lowerback 12.3265 1.30981 -3.29785
upperback 1.41583 1.24909 2.40908
thorax -5.55686 0.633321 4.20301
lowerneck -14.5326 6.59234 3.59923
upperneck 10.6413 8.2398 -0.767289
head 5.76321 4.09857 -0.0575996
rclavicle 9.14409e-015 2.10712e-014
rhumerus -61.5257 -43.1984 -41.4211
rradius 13.3658
rwrist 15.1411
rhand -13.1697 -23.7058
rfingers 7.12502
rthumb 12.9296 -53.2852
lclavicle 9.14409e-015 2.10712e-014
lhumerus -14.1661 2.64434 85.4084
lradius 48.2292
lwrist 4.5064
lhand -20.2845 -11.4033
lfingers 7.12502
lthumb 6.06519 18.4899
rfemur -32.0276 4.23081 12.2908
rtibia 31.5469
rfoot -5.84644 -14.5538
rtoes -2.27308
lfemur 2.64052 -0.488311 -27.5721
ltibia 26.9085
lfoot -18.8001 -9.28855
ltoes 19.8932
